<?xml version="1.0" standalone="no"?>
<!DOCTYPE svg PUBLIC "-//W3C//DTD SVG 20010904//EN"
 "http://www.w3.org/TR/2001/REC-SVG-20010904/DTD/svg10.dtd">
<svg version="1.0" xmlns="http://www.w3.org/2000/svg"
 width="390.000000pt" height="844.000000pt" viewBox="0 0 390.000000 844.000000"
 preserveAspectRatio="xMidYMid meet">
<metadata>
Created by potrace 1.16, written by Peter Selinger 2001-2019
</metadata>
<g transform="translate(0.000000,844.000000) scale(0.100000,-0.100000)"
fill="#000000" stroke="none">
<path d="M2 7728 c1 -392 3 -696 5 -675 4 37 19 49 29 23 3 -8 13 -12 22 -9
12 3 18 -2 19 -17 1 -11 -2 -18 -7 -15 -4 3 -6 -5 -3 -16 6 -21 6 -21 17 -2
10 18 12 18 28 2 9 -10 14 -20 10 -23 -3 -3 0 -6 6 -6 7 0 12 -9 12 -20 0 -11
-5 -20 -11 -20 -5 0 -7 -5 -3 -12 4 -7 3 -8 -4 -4 -9 5 -9 13 -2 27 6 10 9 19
8 20 -2 0 -16 3 -32 5 -25 4 -28 2 -23 -15 3 -12 1 -24 -4 -27 -5 -3 -9 -12
-9 -21 0 -12 7 -14 30 -9 16 3 30 2 30 -2 0 -4 8 -8 18 -9 46 -4 57 -10 58
-37 1 -33 12 -45 24 -26 9 13 10 13 10 0 0 -13 2 -13 9 0 6 8 7 18 4 23 -3 5
6 2 20 -8 18 -12 24 -23 21 -40 -2 -13 1 -36 8 -52 6 -15 11 -31 10 -34 -1 -4
8 -15 18 -24 19 -17 20 -17 20 -1 0 10 6 16 13 13 6 -2 12 -11 12 -21 0 -9 5
-20 10 -24 16 -11 34 -49 40 -84 3 -18 15 -52 26 -77 10 -24 19 -54 19 -67 0
-13 5 -24 10 -24 6 0 9 -3 8 -7 -2 -12 13 -43 48 -96 18 -28 38 -72 44 -99 5
-27 18 -68 28 -91 11 -23 32 -73 47 -112 16 -38 40 -83 53 -99 12 -16 36 -57
51 -91 16 -35 40 -80 55 -101 14 -21 26 -47 26 -57 0 -23 44 -109 64 -126 9
-8 16 -20 16 -27 0 -8 4 -14 10 -14 5 0 17 -16 26 -35 9 -20 27 -43 39 -53 31
-25 41 -49 49 -114 5 -39 12 -58 21 -58 20 0 29 -20 16 -33 -14 -14 -14 -30 0
-21 7 4 9 0 5 -14 -6 -16 -3 -19 12 -15 14 3 22 -3 32 -26 7 -17 9 -38 6 -47
-4 -10 1 -25 11 -36 16 -18 16 -18 0 -12 -10 3 -17 1 -17 -5 0 -6 10 -11 23
-12 14 0 17 -3 7 -6 -8 -4 -23 -16 -33 -27 l-18 -21 6 23 c5 18 2 22 -16 22
-17 0 -19 -3 -10 -14 9 -10 8 -15 -4 -20 -8 -3 -15 -14 -15 -25 0 -11 -9 -22
-20 -26 -16 -5 -18 -10 -9 -26 8 -15 14 -18 23 -10 7 6 15 8 19 5 3 -3 8 4 12
15 12 39 51 25 46 -16 -2 -15 36 -36 49 -28 6 3 10 1 10 -6 0 -8 5 -7 17 2 15
13 15 12 3 -8 -11 -17 -17 -19 -28 -11 -7 6 -12 7 -10 2 2 -5 -6 -21 -18 -36
-16 -20 -24 -24 -33 -15 -6 6 -11 15 -11 20 0 21 -29 37 -52 28 -15 -5 -36 -4
-61 5 -42 15 -167 101 -167 115 0 5 -6 8 -13 6 -8 -1 -12 15 -11 59 0 55 -1
61 -20 60 -13 -1 -22 7 -27 24 -4 14 -8 21 -8 15 -1 -5 -6 -3 -11 5 -5 8 -13
15 -18 15 -5 0 -17 8 -27 19 -18 18 -19 18 -25 0 -4 -11 -9 -14 -13 -7 -4 6
-4 18 -1 27 4 9 0 18 -9 22 -10 3 -13 13 -9 27 5 20 4 20 -11 8 -14 -11 -18
-11 -23 2 -3 9 -3 21 1 27 3 5 0 10 -7 10 -10 0 -9 3 2 10 12 8 12 10 -3 16
-9 3 -14 10 -11 15 3 5 1 9 -5 9 -6 0 -19 16 -29 36 -10 20 -23 36 -28 36 -21
0 -57 25 -45 32 6 4 11 12 11 17 0 6 -4 8 -9 5 -13 -8 -77 35 -92 61 -6 12
-16 20 -21 17 -4 -3 -8 6 -8 19 0 14 -6 30 -14 36 -10 9 -12 21 -5 48 8 39 -4
68 -24 56 -6 -3 -7 -1 -3 6 4 6 12 9 17 6 5 -4 9 -1 9 4 0 6 -6 11 -14 11 -21
0 -76 49 -76 67 0 10 -6 13 -17 9 -10 -4 -15 -4 -11 -1 3 3 -3 30 -14 58 -11
29 -21 59 -21 68 -1 9 -7 15 -14 12 -15 -6 -6 27 10 38 5 4 5 9 -2 13 -6 4
-14 0 -17 -8 -3 -9 -11 -16 -17 -16 -7 0 -7 4 1 12 13 13 17 42 4 35 -4 -2
-15 4 -25 15 -16 17 -14 23 8 18 6 -1 5 4 -2 11 -13 13 -6 42 8 33 5 -3 6 2 3
11 -4 10 -13 14 -22 10 -13 -5 -12 -2 2 14 10 11 23 18 29 17 7 -2 9 -1 5 1
-5 3 -8 11 -8 20 0 10 -6 12 -20 8 -23 -7 -26 2 -6 24 15 16 19 34 17 62 -1
12 -10 16 -35 16 -19 -1 -33 -4 -31 -8 3 -3 -4 -14 -14 -23 -16 -15 -19 -15
-33 1 -8 10 -18 25 -21 33 -3 8 -6 -942 -6 -2113 -1 -1222 3 -2127 8 -2127 16
0 86 32 151 70 36 21 94 68 130 104 40 41 80 71 105 80 22 8 32 15 23 15 -24
1 -23 8 7 46 13 18 21 35 18 39 -4 3 -1 6 5 6 6 0 9 6 6 14 -11 29 165 176
212 176 13 0 29 9 36 21 32 52 279 146 474 180 96 16 161 20 339 20 233 0 335
-12 459 -52 85 -28 236 -122 256 -159 15 -28 -9 -36 -47 -17 -47 25 -164 57
-243 67 -140 17 -563 -18 -792 -66 -155 -33 -249 -64 -366 -123 -121 -61 -159
-87 -352 -240 -140 -112 -290 -218 -392 -278 l-38 -22 0 -395 0 -394 62 -22
c120 -41 173 -51 275 -51 57 0 105 -5 108 -10 9 -14 -40 -29 -121 -36 -72 -6
-76 -5 -160 36 -47 24 -104 49 -125 56 l-39 14 0 -554 0 -555 1950 0 1950 0 0
1936 0 1937 -89 -91 c-50 -50 -106 -98 -125 -106 -19 -8 -41 -24 -48 -35 -7
-12 -18 -21 -25 -21 -7 0 -13 -5 -13 -11 0 -6 -9 -9 -19 -6 -14 3 -18 1 -14
-9 5 -14 -39 -30 -55 -20 -5 3 -15 -5 -21 -18 -22 -41 -105 -69 -140 -47 -7 5
-28 5 -47 1 -44 -10 -72 -3 -79 20 -5 15 -14 17 -53 15 -25 -2 -51 -10 -57
-17 -5 -7 -16 -13 -22 -14 -28 -2 -33 -4 -33 -13 0 -5 12 -8 26 -6 15 1 28 -3
31 -12 7 -19 6 -19 -78 -49 -77 -27 -152 -35 -171 -16 -7 7 -19 7 -33 2 -13
-5 -25 -7 -26 -5 -4 4 -112 16 -146 17 -13 0 -21 4 -18 8 3 4 -21 11 -53 15
-31 4 -74 15 -96 26 -87 42 -339 68 -511 52 -85 -7 -79 -8 115 -14 209 -7 337
-22 355 -41 7 -7 3 -9 -15 -5 -159 37 -531 48 -550 16 -7 -10 -4 -16 7 -20 11
-4 13 -8 5 -13 -6 -3 -8 -14 -5 -24 6 -15 5 -16 -13 -2 -10 8 -16 10 -11 5 4
-4 0 -17 -9 -27 -15 -16 -18 -16 -28 -2 -8 10 -18 13 -30 8 -18 -7 -17 -8 5
-17 23 -8 23 -10 6 -20 -10 -7 -28 -20 -40 -30 -12 -10 -41 -27 -64 -38 -35
-16 -50 -18 -85 -9 -63 14 -69 11 -19 -11 24 -11 42 -21 40 -23 -2 -2 -35 -25
-72 -51 -81 -56 -111 -62 -140 -29 -26 31 -96 32 -176 5 -31 -10 -83 -27 -116
-36 -33 -10 -80 -23 -105 -30 -200 -59 -303 -65 -340 -22 -8 10 -35 21 -60 24
-62 8 -94 26 -178 101 -72 64 -121 128 -87 116 8 -4 15 -10 15 -15 0 -5 4 -9
10 -9 5 0 26 -11 46 -25 20 -14 40 -22 45 -19 5 2 21 -2 37 -10 47 -25 219
-39 314 -26 172 23 267 54 470 153 106 51 225 104 263 116 39 12 84 26 100 31
105 33 590 38 795 9 47 -7 189 -13 315 -13 228 -1 231 -1 351 31 67 18 145 41
173 52 l51 19 20 -38 c24 -47 34 -54 50 -34 11 12 10 22 -4 52 -14 29 -15 37
-4 41 62 20 354 182 410 227 l68 55 0 2249 0 2250 -1950 0 -1950 0 2 -712z
m1110 -127 c12 6 18 6 18 0 0 -6 7 -8 16 -4 14 5 15 3 5 -15 -15 -29 -15 -28
24 -24 29 3 35 1 37 -14 2 -34 3 -39 12 -52 4 -7 2 -19 -4 -27 -10 -12 -9 -15
4 -15 21 0 45 -39 48 -76 1 -16 8 -36 15 -46 10 -11 11 -18 3 -23 -8 -5 -5
-11 7 -20 10 -7 15 -16 11 -20 -3 -4 3 -16 14 -27 15 -15 19 -30 16 -59 -3
-31 0 -40 14 -45 10 -3 22 -14 28 -24 15 -27 20 -103 8 -117 -12 -15 20 -16
62 -3 19 5 21 9 10 14 -9 4 -17 18 -18 32 -3 35 11 23 49 -44 55 -94 62 -109
48 -94 -18 17 -34 15 -20 -2 9 -10 9 -16 1 -21 -6 -4 -12 -5 -14 -4 -1 2 -8
17 -16 33 -30 59 -35 66 -52 66 -16 0 -15 -4 7 -40 14 -22 25 -42 25 -45 0 -3
-17 -3 -37 1 -21 4 -46 8 -56 9 -19 1 -78 41 -90 61 -4 7 -28 23 -53 36 -43
21 -71 58 -59 78 3 4 -2 11 -11 14 -8 3 -12 10 -9 16 3 5 0 10 -9 10 -8 0 -20
14 -28 30 -7 17 -16 30 -20 30 -12 0 -49 60 -43 70 12 19 54 -12 61 -44 4 -23
16 -37 45 -53 21 -12 36 -16 32 -10 -3 7 4 3 16 -8 19 -16 24 -17 31 -5 14 22
12 28 -16 46 -17 12 -24 23 -21 36 3 10 -1 31 -9 46 -12 24 -12 27 1 30 9 2
12 9 8 15 -4 6 -6 27 -4 45 2 31 1 32 -25 26 -20 -5 -25 -4 -22 7 3 8 10 13
16 12 5 -1 13 4 16 13 3 8 2 13 -3 10 -5 -3 -12 6 -15 20 -6 22 -11 25 -35 19
-22 -5 -34 -1 -48 14 -10 11 -31 25 -47 31 l-29 11 39 33 c32 28 36 36 26 48
-13 17 -4 34 11 19 7 -7 17 -7 29 0z m1015 -1345 c32 -18 121 -72 198 -120 77
-47 153 -92 170 -98 71 -28 132 -66 153 -98 12 -18 37 -42 55 -53 48 -29 77
-58 99 -100 24 -48 21 -81 -9 -85 -15 -2 -25 -13 -29 -28 -9 -35 3 -97 21
-110 10 -7 15 -28 15 -58 0 -48 15 -87 55 -141 50 -67 135 -247 135 -286 0
-47 -27 -80 -45 -56 -6 9 -18 17 -26 19 -8 2 -20 11 -27 21 -11 14 -11 21 -1
33 10 12 9 17 -3 27 -21 18 -43 57 -56 103 -8 27 -20 45 -37 52 -14 7 -22 17
-19 25 8 21 -96 124 -149 147 -26 11 -51 29 -57 39 -9 17 -6 19 30 14 28 -4
43 -1 55 11 9 9 12 16 6 16 -5 0 -13 -4 -16 -10 -3 -5 -11 -10 -17 -10 -6 0
-8 3 -5 6 10 10 -12 44 -29 44 -8 0 -17 -7 -20 -15 -7 -16 -34 -21 -34 -5 0
17 -78 89 -104 96 -14 3 -26 10 -26 15 0 6 -7 6 -17 1 -10 -5 -29 -6 -43 -1
-14 4 -20 7 -14 8 14 1 26 41 13 41 -5 0 -8 3 -7 8 3 15 -15 42 -28 42 -18 0
-54 36 -46 46 4 4 2 4 -4 1 -6 -4 -30 6 -52 23 -22 16 -43 26 -46 23 -3 -4 -6
-1 -6 5 0 7 -5 12 -12 12 -6 0 -8 -3 -5 -7 4 -3 1 -13 -6 -21 -9 -13 -9 -14 1
-8 8 5 12 0 12 -13 0 -14 -6 -21 -19 -21 -24 0 -28 6 -32 50 -2 19 -9 43 -15
54 -7 10 -10 24 -8 31 6 14 -84 104 -103 105 -26 0 -12 42 26 80 35 35 75 110
51 95 -14 -8 -12 29 2 60 6 14 12 25 14 25 1 0 28 -15 61 -34z m239 -1562 c21
-9 74 -50 117 -93 171 -165 159 -150 151 -185 -3 -17 -11 -34 -17 -37 -5 -4
-7 -16 -4 -28 5 -19 1 -21 -48 -21 -46 0 -76 -12 -63 -25 3 -3 53 -10 102 -14
5 -1 3 -8 -4 -16 -14 -17 -40 -20 -40 -5 0 6 -16 10 -35 10 -44 0 -55 -22 -28
-53 19 -21 19 -23 2 -57 -10 -19 -18 -32 -19 -27 0 4 -15 1 -33 -7 -26 -10
-39 -11 -55 -2 -11 6 -21 14 -21 19 -1 4 -1 13 -2 20 0 10 -2 10 -6 0 -2 -7
-13 -13 -23 -13 -10 0 -21 -4 -25 -10 -3 -5 -12 -7 -20 -3 -8 3 -15 0 -15 -6
0 -6 -11 -11 -25 -11 -14 0 -25 -6 -26 -12 0 -10 -2 -10 -6 0 -2 6 -23 12 -46
13 -23 0 -36 3 -28 6 11 4 11 7 0 13 -9 6 -2 14 22 29 35 22 89 28 89 11 0 -5
11 -10 25 -10 17 0 29 8 37 25 14 30 34 32 43 5 10 -32 59 -27 84 9 27 37 27
37 -9 45 -28 5 -30 7 -19 28 20 37 31 88 37 177 l7 85 27 -40 c21 -31 28 -53
30 -105 3 -54 6 -65 21 -66 20 -2 19 14 -8 113 -16 57 -102 167 -173 221 -50
38 -49 39 4 17z m-57 -44 c19 -18 53 -43 75 -57 47 -30 65 -51 66 -75 0 -24
-13 -23 -35 2 -27 30 -29 17 -5 -30 25 -49 21 -97 -10 -125 -24 -22 -26 -17
-34 85 -8 91 -32 145 -91 198 -23 23 -41 43 -38 46 8 8 33 -8 72 -44z m605
-40 c35 -14 72 -20 158 -21 86 -2 407 -23 426 -28 1 -1 -3 -11 -9 -23 l-11
-21 -13 23 -13 23 -6 -21 c-8 -25 -17 -27 -34 -10 -7 7 -12 10 -13 8 0 -3 -2
-14 -4 -25 -2 -10 1 -25 6 -31 8 -9 5 -11 -10 -7 -12 3 -21 12 -21 19 0 8 -4
14 -10 14 -14 0 -13 -47 1 -56 6 -3 15 -1 19 6 5 8 9 7 13 -4 5 -12 0 -16 -19
-16 -13 0 -27 -7 -30 -15 -11 -27 -21 -16 -18 20 1 23 -2 35 -10 35 -15 0 -15
-120 -1 -153 4 -10 9 -28 10 -40 1 -12 3 -25 4 -29 0 -3 11 -4 24 -2 l22 5
-22 -12 c-30 -16 -29 -21 10 -64 43 -47 40 -78 -9 -93 -20 -6 -36 -6 -40 -1
-6 11 -24 12 -24 1 0 -4 14 -13 30 -19 17 -6 30 -16 30 -22 0 -8 -9 -7 -28 3
-15 8 -44 14 -64 14 -34 0 -37 -2 -27 -20 6 -11 8 -26 5 -34 -3 -8 0 -23 6
-34 11 -17 14 -17 57 13 25 17 46 29 46 27 1 -3 19 2 40 12 115 47 147 59 152
54 3 -3 -3 -9 -13 -12 -147 -53 -252 -104 -257 -123 -2 -9 12 -40 30 -69 18
-29 33 -55 33 -58 0 -3 9 -19 21 -36 12 -16 19 -32 16 -34 -3 -3 -11 5 -18 18
-7 12 -31 48 -54 78 -23 30 -50 78 -60 105 -9 28 -28 79 -40 115 -39 111 -62
156 -91 178 -88 65 -105 81 -129 124 -22 40 -24 50 -13 67 11 19 7 26 -42 78
-31 32 -66 70 -80 86 l-23 27 25 0 c15 0 47 -9 72 -20z m-245 -90 c45 -22 76
-77 86 -153 4 -28 14 -51 24 -57 12 -7 10 -9 -13 -7 -16 1 -31 -4 -33 -10 -3
-9 6 -13 26 -13 26 0 31 -4 31 -22 0 -13 -4 -29 -9 -36 -7 -11 -9 -10 -15 3
-3 9 -10 14 -15 11 -5 -3 -11 4 -14 16 l-6 21 -18 -22 c-14 -18 -24 -21 -46
-16 -31 8 -33 17 -13 48 15 22 37 132 31 152 -2 5 -7 24 -11 40 -7 29 -7 30
-13 6 -6 -24 -7 -24 -40 17 -30 39 -31 42 -11 42 11 0 38 -9 59 -20z m102 -7
c18 -16 66 -61 108 -101 42 -40 97 -89 124 -110 26 -20 47 -42 47 -50 0 -7 5
-12 12 -10 13 5 48 -21 48 -34 0 -5 11 -31 25 -60 19 -40 22 -54 13 -61 -10
-7 -10 -10 0 -14 13 -5 17 -45 5 -41 -5 2 -8 -1 -8 -7 0 -5 3 -9 8 -7 4 1 12
-10 17 -25 6 -16 15 -36 20 -45 14 -25 12 -38 -5 -38 -8 0 -15 7 -15 15 0 8
-4 15 -8 15 -5 0 -8 10 -8 22 1 15 -7 27 -21 33 -14 6 -23 19 -23 32 0 12 -4
24 -9 28 -13 8 -24 -12 -14 -27 4 -7 8 -28 9 -45 1 -39 -35 -70 -63 -55 -11 6
-12 11 -4 16 6 4 11 2 11 -3 0 -6 5 -11 10 -11 23 0 8 28 -19 33 -21 4 -32 15
-39 37 -10 27 -9 32 15 47 20 13 28 14 31 5 7 -23 19 -12 18 17 -1 27 -2 28
-18 14 -37 -33 -168 -59 -168 -33 0 10 21 14 48 11 9 -2 12 6 10 21 -2 15 -10
23 -23 24 -24 2 -66 24 -89 46 -16 16 -15 18 9 24 26 6 32 23 16 40 -6 5 -14
36 -20 69 -5 33 -19 83 -31 110 -31 70 -59 145 -54 145 2 0 18 -12 35 -27z
m-791 -153 c0 -5 -31 -18 -69 -30 -75 -22 -79 -25 -221 -188 -78 -90 -171
-164 -290 -231 -159 -90 -268 -121 -428 -121 -160 0 -252 35 -324 122 -66 80
-117 126 -189 174 -37 23 -73 52 -81 63 -8 12 -18 18 -21 14 -4 -3 -7 1 -7 10
0 15 6 13 38 -8 20 -14 61 -36 89 -49 79 -37 119 -72 174 -152 93 -133 155
-159 363 -152 100 4 147 11 196 27 82 29 224 108 319 180 100 76 96 73 111
101 25 47 183 208 219 224 66 27 121 35 121 16z m-670 -1210 c-11 -7 1 -10 42
-10 138 0 51 -47 -259 -139 -149 -45 -354 -70 -446 -55 -55 10 -40 27 37 44
37 8 64 18 60 23 -4 4 -2 7 4 7 7 0 12 -4 12 -9 0 -5 17 -3 38 5 20 7 44 13
53 14 19 0 381 103 419 119 14 5 32 10 40 10 13 1 13 0 0 -9z m942 -623 c28
-12 118 -111 118 -129 0 -6 -7 -8 -15 -4 -8 3 -15 1 -15 -4 0 -6 -7 -10 -16
-10 -13 0 -14 -3 -5 -14 10 -12 8 -13 -9 -9 -16 4 -19 2 -13 -13 5 -13 3 -16
-10 -11 -9 3 -17 2 -17 -3 0 -6 -10 -10 -23 -10 -13 0 -28 -5 -35 -12 -9 -9
-12 -9 -12 0 0 7 -4 12 -10 12 -5 0 -10 -9 -10 -20 0 -14 7 -20 23 -21 12 0
16 -3 10 -6 -7 -2 -29 1 -48 7 -39 13 -44 33 -20 80 9 18 11 31 5 35 -6 3 -10
15 -10 25 0 10 -9 39 -19 64 -14 32 -16 46 -8 50 23 9 112 5 139 -7z m-962
-377 c0 -11 7 -23 15 -26 8 -4 15 -14 15 -24 0 -11 5 -22 11 -26 7 -4 9 -22 6
-45 -3 -27 -1 -39 9 -43 21 -8 17 -36 -5 -36 -11 0 -22 4 -26 9 -9 15 -99 8
-112 -9 -10 -13 -12 -13 -19 4 -4 10 -2 27 5 39 7 11 9 22 4 26 -4 3 -19 26
-32 50 -22 42 -23 45 -6 57 22 17 40 7 24 -12 -9 -11 -9 -18 -1 -26 16 -16 34
1 26 25 l-7 22 24 -20 c13 -11 29 -26 37 -32 22 -21 25 -15 18 37 -4 32 -3 50
4 50 5 0 10 -9 10 -20z m-420 -134 c0 -8 7 -19 15 -26 8 -7 15 -20 15 -30 0
-10 7 -23 15 -30 9 -7 13 -15 10 -18 -3 -3 1 -15 9 -26 7 -12 17 -36 21 -54 6
-27 3 -37 -18 -56 -15 -14 -31 -20 -42 -16 -19 7 -24 27 -30 117 -1 28 -6 57
-10 64 -10 16 -17 71 -10 87 6 16 25 6 25 -12z m446 -123 c-3 -18 -36 -40 -36
-23 0 5 -8 10 -17 10 -14 0 -15 -2 -5 -9 17 -10 17 -21 2 -31 -6 -4 -12 -17
-13 -28 -1 -12 -7 -22 -14 -22 -20 0 -16 -80 6 -116 17 -28 16 -47 -5 -72 -1
-2 -21 9 -43 24 -32 21 -41 33 -41 55 0 16 5 29 10 29 21 0 9 30 -15 36 -31 8
-33 35 -4 75 11 16 17 29 12 29 -4 0 10 12 32 27 60 41 136 50 131 16z m-316
-175 c1 -7 9 -31 20 -53 22 -47 25 -65 8 -65 -7 0 5 -17 25 -38 33 -34 77 -51
77 -30 0 4 5 8 12 8 6 0 1 -11 -12 -25 -13 -14 -29 -25 -36 -25 -7 0 -14 -15
-16 -32 l-3 -33 -47 48 c-27 27 -48 51 -48 55 0 3 7 13 16 23 12 13 13 22 5
37 -6 11 -7 23 -3 27 12 13 -42 -19 -64 -38 -14 -12 -20 -26 -17 -38 3 -10 1
-19 -5 -19 -12 0 -22 24 -22 51 0 11 -4 18 -9 15 -15 -10 -1 54 17 76 19 22
82 68 94 68 5 0 8 -6 8 -12z"/>
</g>
</svg>
