<?xml version="1.0" standalone="no"?>
<!DOCTYPE svg PUBLIC "-//W3C//DTD SVG 20010904//EN"
 "http://www.w3.org/TR/2001/REC-SVG-20010904/DTD/svg10.dtd">
<svg version="1.0" xmlns="http://www.w3.org/2000/svg"
 width="1280.000000pt" height="1109.000000pt" viewBox="0 0 1280.000000 1109.000000"
 preserveAspectRatio="xMidYMid meet" >
<metadata>
Created by potrace 1.15, written by Peter Selinger 2001-2017
</metadata>
<g transform="translate(0.000000,1109.000000) scale(0.100000,-0.100000)"
fill="#000" stroke="none" >
<path d="M3750 11074 c-118 -23 -274 -98 -374 -180 -229 -189 -356 -493 -343
-819 11 -265 107 -494 280 -664 111 -109 226 -174 377 -212 117 -30 288 -23
405 15 534 174 785 857 514 1399 -103 205 -286 365 -499 437 -51 18 -93 23
-200 25 -74 2 -146 1 -160 -1z m291 -19 c311 -66 547 -313 640 -671 20 -75 23
-113 22 -244 0 -173 -21 -279 -83 -421 -191 -440 -660 -643 -1069 -463 -323
143 -530 519 -508 922 24 431 305 794 680 876 84 19 231 19 318 1z" fill="white" stroke="black" strokeWidth="10"/>
<path d="M1899 10406 c-451 -133 -546 -792 -167 -1152 314 -298 773 -200 921
196 72 190 58 395 -40 599 -39 81 -58 108 -137 186 -103 103 -172 145 -292
175 -100 26 -190 25 -285 -4z m306 -11 c226 -76 387 -253 456 -502 29 -101 31
-268 6 -363 -85 -317 -353 -494 -645 -425 -242 57 -424 251 -493 525 -31 121
-24 303 16 410 93 249 288 388 530 376 44 -3 103 -12 130 -21z" fill="white" stroke="black" strokeWidth="10"/>
<path d="M770 9467 c-171 -58 -282 -183 -330 -373 -37 -145 -20 -283 55 -439
178 -370 634 -476 888 -206 101 108 147 226 148 381 0 126 -19 207 -76 321
-59 116 -168 225 -286 284 -115 59 -282 72 -399 32z m291 -3 c164 -48 311
-172 386 -324 52 -105 73 -190 73 -300 1 -406 -360 -643 -724 -477 -240 110
-396 406 -356 674 32 216 167 376 360 429 64 18 196 17 261 -2z" fill="white" stroke="black" strokeWidth="10"/>
<path d="M3160 8896 c-367 -59 -695 -230 -1055 -551 -44 -40 -147 -120 -230
-180 -82 -59 -196 -144 -253 -188 -325 -254 -497 -489 -569 -775 -27 -106 -24
-369 5 -487 58 -232 176 -465 333 -656 514 -628 929 -933 1399 -1029 250 -51
596 -2 948 134 208 80 550 263 668 357 308 245 514 726 514 1199 0 205 -41
575 -86 779 -91 408 -285 808 -497 1024 -142 145 -364 265 -612 332 -171 46
-420 64 -565 41z m305 -6 c390 -44 736 -207 919 -434 151 -187 291 -453 371
-706 74 -236 113 -458 141 -800 15 -183 16 -236 6 -355 -45 -537 -280 -952
-662 -1172 -425 -244 -752 -361 -1095 -394 -272 -25 -515 27 -785 169 -281
149 -526 360 -846 732 -256 297 -372 502 -442 779 -22 91 -26 128 -26 261 -1
191 19 281 99 446 118 245 295 423 725 733 91 66 197 148 235 183 352 317 710
504 1060 553 114 16 187 17 300 5z" fill="white" stroke="black" strokeWidth="10"/>
<path d="M8175 8313 c-313 -67 -549 -317 -619 -656 -21 -100 -21 -308 -1 -406
45 -216 152 -410 306 -557 149 -141 315 -221 512 -244 139 -17 301 11 422 72
147 75 280 211 355 362 76 155 94 238 94 431 1 175 -15 263 -74 408 -75 183
-242 383 -397 476 -191 114 -407 155 -598 114z m287 -7 c186 -36 342 -119 474
-251 225 -226 340 -569 293 -878 -44 -296 -196 -520 -435 -640 -401 -202 -907
-6 -1128 436 -92 185 -121 323 -113 529 4 104 11 153 31 221 46 154 115 275
211 372 177 177 429 257 667 211z" fill="white" stroke="black" strokeWidth="10"/>
<path d="M10071 8184 c-132 -35 -279 -152 -355 -283 -230 -395 -55 -928 343
-1045 67 -20 207 -21 276 -2 316 84 520 449 451 808 -52 271 -236 480 -464
527 -72 15 -186 13 -251 -5z m240 -4 c30 -5 90 -28 135 -50 149 -73 270 -231
320 -420 27 -99 24 -282 -5 -384 -82 -291 -300 -476 -561 -476 -150 0 -259 48
-376 164 -134 134 -197 293 -197 501 0 425 317 733 684 665z" fill="white" stroke="black" strokeWidth="10"/>
<path d="M263 8126 c-134 -44 -238 -177 -248 -319 l-4 -62 8 52 c42 255 239
385 475 313 129 -40 247 -160 295 -301 79 -229 -9 -469 -198 -540 -85 -32
-203 -25 -293 18 -150 71 -251 214 -277 392 -7 43 -9 48 -10 21 -5 -149 123
-346 270 -419 165 -81 330 -54 447 73 64 71 93 143 99 256 9 152 -43 288 -152
397 -89 89 -171 126 -285 130 -52 2 -101 -2 -127 -11z" fill="white" stroke="black" strokeWidth="10"/>
<path d="M11380 7587 c-184 -65 -323 -223 -380 -431 -31 -113 -26 -289 12
-395 81 -224 261 -361 477 -362 155 -1 266 46 381 161 129 128 190 280 190
469 0 53 -7 124 -15 159 -32 135 -132 280 -244 351 -116 74 -290 94 -421 48z
m303 -6 c222 -73 367 -289 367 -546 0 -113 -23 -206 -75 -312 -98 -198 -274
-313 -479 -313 -92 0 -151 15 -237 61 -115 62 -216 204 -255 359 -24 96 -15
270 19 368 87 248 284 401 518 402 57 0 105 -6 142 -19z" fill="white" stroke="black" strokeWidth="10"/>
<path d="M12340 6459 c-277 -57 -432 -414 -301 -695 40 -85 100 -147 180 -187
59 -29 74 -32 156 -32 81 0 97 3 158 32 85 40 154 110 201 203 46 92 59 163
54 281 -4 81 -10 107 -36 164 -54 114 -118 179 -217 217 -54 21 -140 29 -195
17z m125 -10 c81 -15 142 -48 197 -107 81 -86 118 -188 118 -322 -1 -93 -13
-146 -51 -227 -156 -327 -575 -320 -696 13 -100 276 60 600 318 643 30 5 54 9
55 10 0 0 27 -4 59 -10z" fill="white" stroke="black" strokeWidth="10"/>
<path d="M9386 6394 c-416 -75 -869 -398 -1013 -722 -164 -369 -215 -853 -142
-1337 19 -127 80 -417 109 -514 84 -292 218 -519 425 -727 158 -159 324 -266
485 -314 198 -59 501 -114 732 -131 252 -20 527 10 733 80 308 105 630 394
868 780 117 190 316 607 377 791 201 600 59 1124 -387 1427 -173 118 -333 191
-709 326 -100 36 -204 77 -230 90 -224 114 -506 209 -727 247 -144 24 -398 26
-521 4z m515 -15 c217 -37 456 -116 699 -232 52 -25 160 -69 240 -97 350 -124
560 -219 720 -325 94 -62 255 -221 305 -300 209 -328 229 -760 56 -1206 -43
-112 -214 -470 -277 -584 -176 -314 -387 -564 -614 -726 -401 -287 -927 -329
-1705 -139 -191 47 -387 163 -550 325 -129 128 -219 255 -305 427 -81 164
-128 306 -175 530 -67 321 -78 426 -79 708 -1 283 12 404 64 604 75 290 151
430 329 606 207 205 495 358 771 410 139 26 363 26 521 -1z" fill="white" stroke="black" strokeWidth="10"/>
<path d="M4860 5071 c-224 -49 -417 -160 -750 -427 -246 -197 -352 -312 -424
-459 -48 -98 -66 -177 -66 -286 1 -264 148 -531 437 -792 365 -330 762 -417
1188 -260 334 123 591 385 670 683 23 88 31 342 16 463 -25 185 -111 479 -181
617 -102 201 -295 369 -507 442 -116 40 -256 47 -383 19z m316 -11 c158 -40
299 -125 415 -248 116 -122 160 -204 239 -441 99 -295 127 -628 71 -844 -87
-334 -381 -597 -796 -714 -90 -25 -115 -28 -255 -27 -177 0 -254 15 -412 84
-173 74 -280 151 -454 324 -234 234 -354 472 -354 706 0 198 104 402 288 570
113 102 353 292 467 369 296 201 569 277 791 221z" fill="white" stroke="black" strokeWidth="10"/>
<path d="M8805 2249 c-258 -33 -481 -207 -606 -473 -56 -119 -76 -210 -90
-400 -11 -142 -11 -187 3 -328 49 -481 209 -749 553 -920 137 -68 278 -106
419 -112 50 -3 75 -3 56 0 -205 25 -296 46 -419 98 -171 72 -330 198 -416 330
-78 120 -140 303 -171 506 -19 124 -21 411 -4 546 44 351 284 647 586 724 157
40 394 23 621 -46 144 -44 517 -197 630 -259 208 -114 345 -267 397 -445 38
-129 31 -312 -20 -489 -32 -109 -134 -317 -216 -441 -72 -108 -202 -249 -298
-321 -85 -64 -244 -143 -345 -170 -44 -12 -127 -25 -185 -29 -100 -7 -102 -7
-30 -8 278 -6 583 155 788 415 212 269 342 590 342 843 0 249 -102 434 -325
591 -82 58 -131 83 -317 163 -366 155 -504 198 -728 226 -95 11 -125 11 -225
-1z" fill="white" stroke="black" strokeWidth="10"/>
</g>
</svg>
